# xmcd
#
# Track frame offsets:
# 150
# 17856
# 32338
# 57118
# 74388
# 89291
# 101430
# 117027
# 133755
# 154979
# 168659
# 184301
#
# Disc length: 2563 seconds
#
#
# Revision: 0
# Processed by: cddbd v1.5.2PL0 Copyright (c) Steve Scherf et al.
# Submitted via: FreeRIP 2.951 
#
DISCID=9d0a010c
DTITLE=Eusekfeurat - Bondångersånger
DYEAR=1990
DGENRE=Folk
TTITLE0=Bondånger sång
TTITLE1=Nya gungor and karuseller
TTITLE2=Gösta
TTITLE3=Konjak and nazister
TTITLE4=Gunde Svan
TTITLE5=Annagreta
TTITLE6=Lingonrap
TTITLE7=Tröstevals för Bondånger
TTITLE8=Bluebirds från Kall
TTITLE9=Gnölar'n
TTITLE10=Requiem (efter död älghund)
TTITLE11=Bondånger (instrumental)
EXTD=
EXTT0=
EXTT1=
EXTT2=
EXTT3=
EXTT4=
EXTT5=
EXTT6=
EXTT7=
EXTT8=
EXTT9=
EXTT10=
EXTT11=
PLAYORDER=
